# Blender v2.90.0 OBJ File: ''
# www.blender.org
o Cube
v 0.020000 0.100000 -0.100000
v 0.020000 -0.100000 -0.100000
v 0.020000 0.100000 0.100000
v 0.020000 -0.100000 0.100000
v -0.020000 0.100000 -0.100000
v -0.020000 -0.100000 -0.100000
v -0.020000 0.100000 0.100000
v -0.020000 -0.100000 0.100000
v -0.020000 -0.080556 0.080556
v 0.020000 -0.080556 0.080556
v -0.020000 0.080556 0.080556
v 0.020000 0.080556 0.080556
v -0.020000 0.080556 -0.080556
v 0.020000 0.080556 -0.080556
v -0.020000 -0.080556 -0.080556
v 0.020000 -0.080556 -0.080556
vt 0.875000 0.500000
vt 0.625000 0.750000
vt 0.625000 0.500000
vt 0.375000 1.000000
vt 0.375000 0.750000
vt 0.375000 0.000000
vt 0.399305 0.024305
vt 0.375000 0.250000
vt 0.375000 0.500000
vt 0.125000 0.750000
vt 0.125000 0.500000
vt 0.399305 0.524305
vt 0.625000 0.250000
vt 0.375000 0.406034
vt 0.625000 0.343966
vt 0.375000 0.343966
vt 0.600695 0.225695
vt 0.625000 0.000000
vt 0.281034 0.750000
vt 0.218966 0.500000
vt 0.218966 0.750000
vt 0.375000 0.906034
vt 0.625000 0.843966
vt 0.375000 0.843966
vt 0.600695 0.725695
vt 0.781034 0.750000
vt 0.718966 0.500000
vt 0.718966 0.750000
vt 0.875000 0.750000
vt 0.625000 1.000000
vt 0.600695 0.024305
vt 0.399305 0.225695
vt 0.600695 0.524305
vt 0.399305 0.725695
vt 0.625000 0.406034
vt 0.281034 0.500000
vt 0.625000 0.906034
vt 0.781034 0.500000
vn 0.0000 1.0000 0.0000
vn 0.0000 0.0000 1.0000
vn -1.0000 0.0000 0.0000
vn 0.0000 -1.0000 0.0000
vn 1.0000 0.0000 0.0000
vn 0.0000 0.0000 -1.0000
s off
f 5/1/1 3/2/1 1/3/1
f 3/2/2 8/4/2 4/5/2
f 8/6/3 9/7/3 6/8/3
f 2/9/4 8/10/4 6/11/4
f 2/9/5 16/12/5 4/5/5
f 5/13/6 2/9/6 6/8/6
f 16/14/2 13/15/2 15/16/2
f 13/17/3 7/18/3 5/13/3
f 10/19/1 15/20/1 9/21/1
f 9/22/6 12/23/6 10/24/6
f 12/25/5 1/3/5 3/2/5
f 11/26/4 14/27/4 12/28/4
f 5/1/1 7/29/1 3/2/1
f 3/2/2 7/30/2 8/4/2
f 8/6/3 7/18/3 11/31/3
f 9/7/3 15/32/3 6/8/3
f 8/6/3 11/31/3 9/7/3
f 2/9/4 4/5/4 8/10/4
f 2/9/5 1/3/5 14/33/5
f 16/12/5 10/34/5 4/5/5
f 2/9/5 14/33/5 16/12/5
f 5/13/6 1/3/6 2/9/6
f 16/14/2 14/35/2 13/15/2
f 5/13/3 6/8/3 15/32/3
f 13/17/3 11/31/3 7/18/3
f 5/13/3 15/32/3 13/17/3
f 10/19/1 16/36/1 15/20/1
f 9/22/6 11/37/6 12/23/6
f 3/2/5 4/5/5 10/34/5
f 12/25/5 14/33/5 1/3/5
f 3/2/5 10/34/5 12/25/5
f 11/26/4 13/38/4 14/27/4
o Text
v 0.003795 -0.039472 -0.011766
v 0.003795 0.031375 -0.043394
v 0.003795 0.031375 -0.006073
v 0.003795 0.043141 -0.006073
v 0.003795 0.043141 -0.061864
v 0.003795 -0.044279 -0.022772
v 0.003795 -0.043141 0.037827
v 0.003795 0.043141 0.037827
v 0.003795 0.043141 0.025429
v 0.003795 -0.043141 0.025429
v -0.003795 -0.039472 -0.011766
v -0.003795 0.031375 -0.043394
v -0.003795 0.031375 -0.006073
v -0.003795 0.043141 -0.006073
v -0.003795 0.043141 -0.061864
v -0.003795 -0.044279 -0.022772
v -0.003795 -0.043141 0.037827
v -0.003795 0.043141 0.037827
v -0.003795 0.043141 0.025429
v -0.003795 -0.043141 0.025429
v -0.003795 -0.043141 0.037827
v 0.003795 -0.043141 0.037827
v -0.003795 0.043141 0.037827
v 0.003795 0.043141 0.037827
v -0.003795 0.043141 0.025429
v 0.003795 0.043141 0.025429
v -0.003795 -0.043141 0.025429
v 0.003795 -0.043141 0.025429
v -0.003795 -0.039472 -0.011766
v 0.003795 -0.039472 -0.011766
v -0.003795 0.031375 -0.043394
v 0.003795 0.031375 -0.043394
v -0.003795 0.031375 -0.006073
v 0.003795 0.031375 -0.006073
v -0.003795 0.043141 -0.006073
v 0.003795 0.043141 -0.006073
v -0.003795 0.043141 -0.061864
v 0.003795 0.043141 -0.061864
v -0.003795 -0.044279 -0.022772
v 0.003795 -0.044279 -0.022772
vt 0.400000 0.000000
vt 0.800000 0.000000
vt 0.600000 0.000000
vt 0.200000 0.000000
vt 1.000000 0.000000
vt 0.000000 0.000000
vt 0.000000 0.000000
vt 0.666667 0.000000
vt 0.333333 0.000000
vt 1.000000 0.000000
vt 0.800000 0.000000
vt 0.400000 0.000000
vt 0.600000 0.000000
vt 0.200000 0.000000
vt 1.000000 0.000000
vt 0.000000 0.000000
vt 0.666667 0.000000
vt 0.000000 0.000000
vt 0.333333 0.000000
vt 1.000000 0.000000
vt 0.250000 1.000000
vt 0.000000 0.000000
vt 0.000000 1.000000
vt 0.500000 1.000000
vt 0.250000 0.000000
vt 0.750000 1.000000
vt 0.500000 0.000000
vt 1.000000 1.000000
vt 0.750000 0.000000
vt 0.166667 1.000000
vt 0.000000 0.000000
vt 0.000000 1.000000
vt 0.333333 1.000000
vt 0.166667 0.000000
vt 0.500000 1.000000
vt 0.333333 0.000000
vt 0.666667 1.000000
vt 0.500000 0.000000
vt 0.833333 1.000000
vt 0.666667 0.000000
vt 1.000000 1.000000
vt 0.833333 0.000000
vt 1.000000 0.000000
vt 1.000000 0.000000
vn 1.0000 -0.0000 -0.0000
vn -1.0000 0.0000 0.0000
vn 0.0000 0.7071 0.7071
vn 0.0000 -0.7071 0.7071
vn 0.0000 0.7071 -0.7071
vn 0.0000 -0.7071 -0.7071
vn 0.0000 -0.5442 0.8389
vn 0.0000 -0.3612 0.9325
vn 0.0000 0.5439 -0.8391
vn 0.0000 -0.9326 -0.3609
s off
f 19/39/7 21/40/7 20/41/7
f 19/39/7 18/42/7 21/40/7
f 18/42/7 22/43/7 21/40/7
f 17/44/7 22/43/7 18/42/7
f 23/45/7 25/46/7 24/47/7
f 23/45/7 26/48/7 25/46/7
f 31/49/8 29/50/8 30/51/8
f 28/52/8 29/50/8 31/49/8
f 32/53/8 28/52/8 31/49/8
f 32/53/8 27/54/8 28/52/8
f 35/55/8 33/56/8 34/57/8
f 36/58/8 33/56/8 35/55/8
s 1
f 40/59/9 37/60/10 38/61/10
f 42/62/11 39/63/9 40/59/9
f 44/64/12 41/65/11 42/62/11
f 38/66/10 43/67/12 44/64/12
f 48/68/13 45/69/14 46/70/14
f 50/71/10 47/72/13 48/68/13
f 52/73/9 49/74/10 50/71/10
f 54/75/15 51/76/9 52/73/9
f 56/77/16 53/78/15 54/75/15
f 46/79/14 55/80/16 56/77/16
f 40/59/9 39/63/9 37/60/10
f 42/62/11 41/65/11 39/63/9
f 44/64/12 43/67/12 41/65/11
f 38/66/10 37/81/10 43/67/12
f 48/68/13 47/72/13 45/69/14
f 50/71/10 49/74/10 47/72/13
f 52/73/9 51/76/9 49/74/10
f 54/75/15 53/78/15 51/76/9
f 56/77/16 55/80/16 53/78/15
f 46/79/14 45/82/14 55/80/16
