# Blender v2.90.0 OBJ File: ''
# www.blender.org
o Cube
v 0.020000 0.100000 -0.100000
v 0.020000 -0.100000 -0.100000
v 0.020000 0.100000 0.100000
v 0.020000 -0.100000 0.100000
v -0.020000 0.100000 -0.100000
v -0.020000 -0.100000 -0.100000
v -0.020000 0.100000 0.100000
v -0.020000 -0.100000 0.100000
v -0.020000 -0.080556 0.080556
v 0.020000 -0.080556 0.080556
v -0.020000 0.080556 0.080556
v 0.020000 0.080556 0.080556
v -0.020000 0.080556 -0.080556
v 0.020000 0.080556 -0.080556
v -0.020000 -0.080556 -0.080556
v 0.020000 -0.080556 -0.080556
vt 0.875000 0.500000
vt 0.625000 0.750000
vt 0.625000 0.500000
vt 0.375000 1.000000
vt 0.375000 0.750000
vt 0.375000 0.000000
vt 0.399305 0.024305
vt 0.375000 0.250000
vt 0.375000 0.500000
vt 0.125000 0.750000
vt 0.125000 0.500000
vt 0.399305 0.524305
vt 0.625000 0.250000
vt 0.375000 0.406034
vt 0.625000 0.343966
vt 0.375000 0.343966
vt 0.600695 0.225695
vt 0.625000 0.000000
vt 0.281034 0.750000
vt 0.218966 0.500000
vt 0.218966 0.750000
vt 0.375000 0.906034
vt 0.625000 0.843966
vt 0.375000 0.843966
vt 0.600695 0.725695
vt 0.781034 0.750000
vt 0.718966 0.500000
vt 0.718966 0.750000
vt 0.875000 0.750000
vt 0.625000 1.000000
vt 0.600695 0.024305
vt 0.399305 0.225695
vt 0.600695 0.524305
vt 0.399305 0.725695
vt 0.625000 0.406034
vt 0.281034 0.500000
vt 0.625000 0.906034
vt 0.781034 0.500000
vn 0.0000 1.0000 0.0000
vn 0.0000 0.0000 1.0000
vn -1.0000 0.0000 0.0000
vn 0.0000 -1.0000 0.0000
vn 1.0000 0.0000 0.0000
vn 0.0000 0.0000 -1.0000
s off
f 5/1/1 3/2/1 1/3/1
f 3/2/2 8/4/2 4/5/2
f 8/6/3 9/7/3 6/8/3
f 2/9/4 8/10/4 6/11/4
f 2/9/5 16/12/5 4/5/5
f 5/13/6 2/9/6 6/8/6
f 16/14/2 13/15/2 15/16/2
f 13/17/3 7/18/3 5/13/3
f 10/19/1 15/20/1 9/21/1
f 9/22/6 12/23/6 10/24/6
f 12/25/5 1/3/5 3/2/5
f 11/26/4 14/27/4 12/28/4
f 5/1/1 7/29/1 3/2/1
f 3/2/2 7/30/2 8/4/2
f 8/6/3 7/18/3 11/31/3
f 9/7/3 15/32/3 6/8/3
f 8/6/3 11/31/3 9/7/3
f 2/9/4 4/5/4 8/10/4
f 2/9/5 1/3/5 14/33/5
f 16/12/5 10/34/5 4/5/5
f 2/9/5 14/33/5 16/12/5
f 5/13/6 1/3/6 2/9/6
f 16/14/2 14/35/2 13/15/2
f 5/13/3 6/8/3 15/32/3
f 13/17/3 11/31/3 7/18/3
f 5/13/3 15/32/3 13/17/3
f 10/19/1 16/36/1 15/20/1
f 9/22/6 11/37/6 12/23/6
f 3/2/5 4/5/5 10/34/5
f 12/25/5 14/33/5 1/3/5
f 3/2/5 10/34/5 12/25/5
f 11/26/4 13/38/4 14/27/4
o Text
v 0.003795 -0.003669 -0.059461
v 0.003795 -0.014802 -0.059461
v 0.003795 -0.014802 -0.050225
v 0.003795 -0.043141 -0.050225
v 0.003795 -0.043141 -0.037827
v 0.003795 -0.014802 -0.037827
v 0.003795 -0.014802 -0.001265
v 0.003795 -0.009109 -0.001265
v 0.003795 0.044279 -0.044912
v 0.003795 0.044279 -0.050225
v 0.003795 -0.003669 -0.050225
v 0.003795 -0.003669 -0.037827
v 0.003795 0.020874 -0.037827
v 0.003795 0.020874 -0.037574
v 0.003795 -0.003669 -0.017838
v 0.003795 -0.043141 0.037827
v 0.003795 0.043141 0.037827
v 0.003795 0.043141 0.025429
v 0.003795 -0.043141 0.025429
v -0.003795 -0.003669 -0.059461
v -0.003795 -0.014802 -0.059461
v -0.003795 -0.014802 -0.050225
v -0.003795 -0.043141 -0.050225
v -0.003795 -0.043141 -0.037827
v -0.003795 -0.014802 -0.037827
v -0.003795 -0.014802 -0.001265
v -0.003795 -0.009109 -0.001265
v -0.003795 0.044279 -0.044912
v -0.003795 0.044279 -0.050225
v -0.003795 -0.003669 -0.050225
v -0.003795 -0.003669 -0.037827
v -0.003795 0.020874 -0.037827
v -0.003795 0.020874 -0.037574
v -0.003795 -0.003669 -0.017838
v -0.003795 -0.043141 0.037827
v -0.003795 0.043141 0.037827
v -0.003795 0.043141 0.025429
v -0.003795 -0.043141 0.025429
v -0.003795 -0.043141 0.037827
v 0.003795 -0.043141 0.037827
v -0.003795 0.043141 0.037827
v 0.003795 0.043141 0.037827
v -0.003795 0.043141 0.025429
v 0.003795 0.043141 0.025429
v -0.003795 -0.043141 0.025429
v 0.003795 -0.043141 0.025429
v -0.003795 -0.003669 -0.059461
v 0.003795 -0.003669 -0.059461
v -0.003795 -0.014802 -0.059461
v 0.003795 -0.014802 -0.059461
v -0.003795 -0.014802 -0.050225
v 0.003795 -0.014802 -0.050225
v -0.003795 -0.043141 -0.050225
v 0.003795 -0.043141 -0.050225
v -0.003795 -0.043141 -0.037827
v 0.003795 -0.043141 -0.037827
v -0.003795 -0.014802 -0.037827
v 0.003795 -0.014802 -0.037827
v -0.003795 -0.014802 -0.001265
v 0.003795 -0.014802 -0.001265
v -0.003795 -0.009109 -0.001265
v 0.003795 -0.009109 -0.001265
v -0.003795 0.044279 -0.044912
v 0.003795 0.044279 -0.044912
v -0.003795 0.044279 -0.050225
v 0.003795 0.044279 -0.050225
v -0.003795 -0.003669 -0.050225
v 0.003795 -0.003669 -0.050225
v -0.003795 -0.003669 -0.037827
v 0.003795 -0.003669 -0.037827
v -0.003795 0.020874 -0.037827
v 0.003795 0.020874 -0.037827
v -0.003795 0.020874 -0.037574
v 0.003795 0.020874 -0.037574
v -0.003795 -0.003669 -0.017838
v 0.003795 -0.003669 -0.017838
vt 0.500000 0.000000
vt 0.642857 0.000000
vt 0.571429 0.000000
vt 0.928571 0.000000
vt 0.857143 0.000000
vt 0.714286 0.000000
vt 1.000000 0.000000
vt 0.785714 0.000000
vt 0.000000 0.000000
vt 0.071429 0.000000
vt 0.428571 0.000000
vt 0.357143 0.000000
vt 0.285714 0.000000
vt 0.142857 0.000000
vt 0.214286 0.000000
vt 0.000000 0.000000
vt 0.666667 0.000000
vt 0.333333 0.000000
vt 1.000000 0.000000
vt 0.642857 0.000000
vt 0.500000 0.000000
vt 0.571429 0.000000
vt 0.928571 0.000000
vt 0.857143 0.000000
vt 0.714286 0.000000
vt 1.000000 0.000000
vt 0.785714 0.000000
vt 0.000000 0.000000
vt 0.071429 0.000000
vt 0.428571 0.000000
vt 0.357143 0.000000
vt 0.142857 0.000000
vt 0.285714 0.000000
vt 0.214286 0.000000
vt 0.666667 0.000000
vt 0.000000 0.000000
vt 0.333333 0.000000
vt 1.000000 0.000000
vt 0.250000 1.000000
vt 0.000000 0.000000
vt 0.000000 1.000000
vt 0.500000 1.000000
vt 0.250000 0.000000
vt 0.750000 1.000000
vt 0.500000 0.000000
vt 1.000000 1.000000
vt 0.750000 0.000000
vt 0.090909 1.000000
vt 0.000000 0.000000
vt 0.000000 1.000000
vt 0.181818 1.000000
vt 0.090909 0.000000
vt 0.272727 1.000000
vt 0.181818 0.000000
vt 0.363636 1.000000
vt 0.272727 0.000000
vt 0.454545 1.000000
vt 0.363636 0.000000
vt 0.545455 1.000000
vt 0.454545 0.000000
vt 0.636364 1.000000
vt 0.545455 0.000000
vt 0.727273 1.000000
vt 0.636364 0.000000
vt 0.818182 1.000000
vt 0.727273 0.000000
vt 0.909091 1.000000
vt 0.818182 0.000000
vt 1.000000 1.000000
vt 0.909091 0.000000
vt 0.250000 1.000000
vt 0.000000 0.000000
vt 0.000000 1.000000
vt 0.500000 1.000000
vt 0.250000 0.000000
vt 0.750000 1.000000
vt 0.500000 0.000000
vt 1.000000 1.000000
vt 0.750000 0.000000
vt 1.000000 0.000000
vt 1.000000 0.000000
vt 1.000000 0.000000
vn 1.0000 -0.0000 -0.0000
vn 0.0000 0.0000 1.0000
vn 0.0000 -1.0000 0.0000
vn -1.0000 0.0000 0.0000
vn 0.0000 1.0000 0.0000
vn 0.0000 0.7071 0.7071
vn 0.0000 -0.7071 0.7071
vn 0.0000 0.7071 -0.7071
vn 0.0000 -0.7071 -0.7071
vn 0.0000 0.3360 0.9418
vn 0.0000 0.9036 0.4284
vn 0.0000 -0.9018 -0.4321
vn 0.0000 0.4321 -0.9018
s off
f 24/39/7 26/40/7 25/41/7
f 24/39/7 30/42/7 26/40/7
f 30/42/7 29/43/7 26/40/7
f 29/43/7 27/44/7 26/40/7
f 24/39/7 31/45/7 30/42/7
f 28/46/7 27/44/7 29/43/7
f 24/39/7 28/46/7 31/45/7
f 24/39/7 27/44/7 28/46/7
f 24/39/7 17/47/7 27/44/7
f 24/39/7 18/48/7 17/47/7
f 23/49/7 18/48/7 24/39/7
f 22/50/8 18/48/8 23/49/8
f 21/51/7 19/52/7 22/50/7
f 19/52/9 18/48/9 22/50/9
f 21/51/7 20/53/7 19/52/7
f 32/54/7 34/55/7 33/56/7
f 32/54/7 35/57/7 34/55/7
f 45/58/10 43/59/10 44/60/10
f 49/61/10 43/59/10 45/58/10
f 48/62/10 49/61/10 45/58/10
f 46/63/10 48/62/10 45/58/10
f 50/64/10 43/59/10 49/61/10
f 46/63/10 47/65/10 48/62/10
f 47/65/10 43/59/10 50/64/10
f 46/63/10 43/59/10 47/65/10
f 36/66/10 43/59/10 46/63/10
f 37/67/10 43/59/10 36/66/10
f 37/67/10 42/68/10 43/59/10
f 37/67/11 41/69/11 42/68/11
f 38/70/10 40/71/10 41/69/10
f 37/67/8 38/70/8 41/69/8
f 39/72/10 40/71/10 38/70/10
f 53/73/10 51/74/10 52/75/10
f 54/76/10 51/74/10 53/73/10
s 1
f 58/77/12 55/78/13 56/79/13
f 60/80/14 57/81/12 58/77/12
f 62/82/15 59/83/14 60/80/14
f 56/84/13 61/85/15 62/82/15
f 66/86/15 63/87/14 64/88/14
f 68/89/15 65/90/15 66/86/15
f 70/91/15 67/92/15 68/89/15
f 72/93/13 69/94/15 70/91/15
f 74/95/13 71/96/13 72/93/13
f 76/97/13 73/98/13 74/95/13
f 78/99/16 75/100/13 76/97/13
f 80/101/17 77/102/16 78/99/16
f 82/103/14 79/104/17 80/101/17
f 84/105/14 81/106/14 82/103/14
f 64/107/14 83/108/14 84/105/14
f 88/109/13 85/110/12 86/111/12
f 90/112/18 87/113/13 88/109/13
f 92/114/19 89/115/18 90/112/18
f 86/116/12 91/117/19 92/114/19
f 58/77/12 57/81/12 55/78/13
f 60/80/14 59/83/14 57/81/12
f 62/82/15 61/85/15 59/83/14
f 56/84/13 55/118/13 61/85/15
f 66/86/15 65/90/15 63/87/14
f 68/89/15 67/92/15 65/90/15
f 70/91/15 69/94/15 67/92/15
f 72/93/13 71/96/13 69/94/15
f 74/95/13 73/98/13 71/96/13
f 76/97/13 75/100/13 73/98/13
f 78/99/16 77/102/16 75/100/13
f 80/101/17 79/104/17 77/102/16
f 82/103/14 81/106/14 79/104/17
f 84/105/14 83/108/14 81/106/14
f 64/107/14 63/119/14 83/108/14
f 88/109/13 87/113/13 85/110/12
f 90/112/18 89/115/18 87/113/13
f 92/114/19 91/117/19 89/115/18
f 86/116/12 85/120/12 91/117/19
